<svg xmlns="http://www.w3.org/2000/svg" xmlns:xlink="http://www.w3.org/1999/xlink" width="749pt" height="452pt" viewBox="0 0 748.54 452"><g id="graph0" class="graph" transform="scale(1 1) rotate(0) translate(4 448)"><title>Automaton_metaclass</title><polygon fill="#fff" stroke="transparent" points="-4 4 -4 -448 744.543 -448 744.543 4 -4 4"/><g id="node1" class="node"><title>START</title><polygon fill="#00f" stroke="#000" points="115.543 -444 49.543 -444 49.543 -408 115.543 -408 115.543 -444"/><text x="82.543" y="-422.3" fill="#000" font-family="Times,serif" font-size="14" text-anchor="middle">START</text></g><g id="node4" class="node"><title>SYN_SENT</title><ellipse cx="82.543" cy="-324" fill="none" stroke="#000" rx="64.189" ry="18"/><text x="82.543" y="-320.3" fill="#000" font-family="Times,serif" font-size="14" text-anchor="middle">SYN_SENT</text></g><g id="edge1" class="edge"><title>START-&gt;SYN_SENT</title><path fill="none" stroke="#a020f0" d="M82.5427,-407.7644C82.5427,-392.317 82.5427,-369.9149 82.5427,-352.164"/><polygon fill="#a020f0" stroke="#a020f0" points="86.043 -352.078 82.543 -342.078 79.043 -352.078 86.043 -352.078"/><text x="82.543" y="-378.8" fill="#000" font-family="Times,serif" font-size="14" text-anchor="start">connect</text><text x="127.043" y="-363.8" fill="#000" font-family="Times,serif" font-size="14" text-anchor="middle">&gt;[send_syn]</text></g><g id="node2" class="node"><title>CLOSED</title><polygon fill="#0f0" stroke="#000" points="407.509 -10.544 407.509 -25.456 374.139 -36 326.947 -36 293.577 -25.456 293.577 -10.544 326.947 0 374.139 0 407.509 -10.544"/><text x="350.543" y="-14.3" fill="#000" font-family="Times,serif" font-size="14" text-anchor="middle">CLOSED</text></g><g id="node3" class="node"><title>STOP</title><polygon fill="orange" stroke="#000" points="624.543 -240 566.543 -240 566.543 -204 624.543 -204 624.543 -240"/><text x="595.543" y="-218.3" fill="#000" font-family="Times,serif" font-size="14" text-anchor="middle">STOP</text></g><g id="node5" class="node"><title>STOP_SENT_FIN_ACK</title><ellipse cx="584.543" cy="-120" fill="none" stroke="#000" rx="119.679" ry="18"/><text x="584.543" y="-116.3" fill="#000" font-family="Times,serif" font-size="14" text-anchor="middle">STOP_SENT_FIN_ACK</text></g><g id="edge2" class="edge"><title>STOP-&gt;STOP_SENT_FIN_ACK</title><path fill="none" stroke="#a020f0" d="M593.5761,-203.7644C591.9102,-188.317 589.4943,-165.9149 587.58,-148.164"/><polygon fill="#a020f0" stroke="#a020f0" points="591.044 -147.645 586.492 -138.078 584.085 -148.395 591.044 -147.645"/><text x="590.543" y="-174.8" fill="#000" font-family="Times,serif" font-size="14" text-anchor="start">stop_requested</text><text x="664.043" y="-159.8" fill="#000" font-family="Times,serif" font-size="14" text-anchor="middle">&gt;[stop_send_finack]</text></g><g id="node6" class="node"><title>ESTABLISHED</title><ellipse cx="82.543" cy="-222" fill="none" stroke="#000" rx="82.585" ry="18"/><text x="82.543" y="-218.3" fill="#000" font-family="Times,serif" font-size="14" text-anchor="middle">ESTABLISHED</text></g><g id="edge3" class="edge"><title>SYN_SENT-&gt;ESTABLISHED</title><path fill="none" stroke="red" d="M82.5427,-305.7644C82.5427,-290.317 82.5427,-267.9149 82.5427,-250.164"/><polygon fill="red" stroke="red" points="86.043 -250.078 82.543 -240.078 79.043 -250.078 86.043 -250.078"/><text x="82.543" y="-276.8" fill="#000" font-family="Times,serif" font-size="14" text-anchor="start">synack_received</text><text x="167.043" y="-261.8" fill="#000" font-family="Times,serif" font-size="14" text-anchor="middle">&gt;[send_ack_of_synack]</text></g><g id="edge8" class="edge"><title>STOP_SENT_FIN_ACK-&gt;CLOSED</title><path fill="none" stroke="red" d="M506.6853,-106.2285C476.8629,-99.941 447.0069,-92.0974 434.5427,-84 420.4538,-74.8471 424.1189,-65.1405 411.5427,-54 405.3941,-48.5534 398.3012,-43.4982 391.1753,-39.0009"/><polygon fill="red" stroke="red" points="392.576 -35.76 382.2 -33.615 388.974 -41.762 392.576 -35.76"/><text x="434.543" y="-72.8" fill="#000" font-family="Times,serif" font-size="14" text-anchor="start">stop_fin_received</text><text x="498.543" y="-57.8" fill="#000" font-family="Times,serif" font-size="14" text-anchor="middle">&gt;[stop_send_ack]</text></g><g id="edge10" class="edge"><title>STOP_SENT_FIN_ACK-&gt;CLOSED</title><path fill="none" stroke="#00f" d="M583.4641,-101.789C581.5559,-86.6988 576.39,-65.8691 562.5427,-54 541.1731,-35.6833 471.4311,-26.4545 417.7121,-21.9626"/><polygon fill="#00f" stroke="#00f" points="417.789 -18.458 407.543 -21.152 417.233 -25.436 417.789 -18.458"/><text x="659.543" y="-65.3" fill="#000" font-family="Times,serif" font-size="14" text-anchor="middle">stop_ack_timeout/1.0s</text></g><g id="edge5" class="edge"><title>ESTABLISHED-&gt;CLOSED</title><path fill="none" stroke="red" d="M78.2245,-203.9424C73.243,-178.3574 68.4369,-131.4044 91.5427,-102 116.2487,-70.5591 221.4144,-43.9885 289.9049,-29.5824"/><polygon fill="red" stroke="red" points="290.648 -33.003 299.73 -27.546 289.228 -26.148 290.648 -33.003"/><text x="144.543" y="-116.3" fill="#000" font-family="Times,serif" font-size="14" text-anchor="middle">reset_received</text></g><g id="edge4" class="edge"><title>ESTABLISHED-&gt;ESTABLISHED</title><path fill="none" stroke="red" d="M163.0059,-226.2523C174.984,-225.5903 183.0854,-224.1729 183.0854,-222 183.0854,-220.5062 179.2562,-219.3694 172.9707,-218.5896"/><polygon fill="red" stroke="red" points="173.265 -215.102 163.006 -217.748 172.676 -222.077 173.265 -215.102"/><text x="183.085" y="-225.8" fill="#000" font-family="Times,serif" font-size="14" text-anchor="start">incoming_data_received</text><text x="270.585" y="-210.8" fill="#000" font-family="Times,serif" font-size="14" text-anchor="middle">&gt;[receive_data]</text></g><g id="edge9" class="edge"><title>ESTABLISHED-&gt;ESTABLISHED</title><path fill="none" stroke="orange" d="M157.3408,-229.7828C240.422,-233.42 358.0854,-230.8257 358.0854,-222 358.0854,-213.5277 249.6557,-210.7978 167.4768,-213.8103"/><polygon fill="orange" stroke="orange" points="167.192 -210.319 157.341 -214.217 167.473 -217.313 167.192 -210.319"/><text x="358.085" y="-225.8" fill="#000" font-family="Times,serif" font-size="14" text-anchor="start">outgoing_data_received</text><text x="444.085" y="-210.8" fill="#000" font-family="Times,serif" font-size="14" text-anchor="middle">&gt;[send_data]</text></g><g id="node7" class="node"><title>LAST_ACK</title><ellipse cx="268.543" cy="-120" fill="none" stroke="#000" rx="62.289" ry="18"/><text x="268.543" y="-116.3" fill="#000" font-family="Times,serif" font-size="14" text-anchor="middle">LAST_ACK</text></g><g id="edge6" class="edge"><title>ESTABLISHED-&gt;LAST_ACK</title><path fill="none" stroke="red" d="M113.2568,-205.1568C145.3662,-187.5484 195.8087,-159.8864 230.437,-140.8966"/><polygon fill="red" stroke="red" points="232.232 -143.904 239.317 -136.027 228.866 -137.766 232.232 -143.904"/><text x="197.543" y="-174.8" fill="#000" font-family="Times,serif" font-size="14" text-anchor="start">fin_received</text><text x="252.043" y="-159.8" fill="#000" font-family="Times,serif" font-size="14" text-anchor="middle">&gt;[send_finack]</text></g><g id="edge7" class="edge"><title>LAST_ACK-&gt;CLOSED</title><path fill="none" stroke="red" d="M263.8817,-101.9378C261.3052,-87.7307 260.2565,-68.055 269.5427,-54 275.5829,-44.8579 284.5293,-38.0163 294.2979,-32.9028"/><polygon fill="red" stroke="red" points="295.832 -36.049 303.44 -28.676 292.895 -29.695 295.832 -36.049"/><text x="340.543" y="-65.3" fill="#000" font-family="Times,serif" font-size="14" text-anchor="middle">ack_of_fin_received</text></g></g></svg>