<svg xmlns="http://www.w3.org/2000/svg" xmlns:xlink="http://www.w3.org/1999/xlink" width="152" height="188pt" viewBox="0 0 114 188"><g id="graph0" class="graph" transform="scale(1 1) rotate(0) translate(4 184)"><title>pipe</title><polygon fill="#fff" stroke="transparent" points="-4 4 -4 -184 110 -184 110 4 -4 4"/><g id="node1" class="node"><title>2518161510704</title><polygon fill="none" stroke="#000" points="106 -108 0 -108 0 -72 106 -72 106 -108"/><text x="53" y="-86.3" font-family="Times New Roman,serif" font-size="14" text-anchor="middle">TransformDrain</text></g><g id="node3" class="node"><title>2518161510896</title><polygon fill="none" stroke="#000" points="102 -36 4 -36 4 0 102 0 102 -36"/><text x="53" y="-14.3" font-family="Times New Roman,serif" font-size="14" text-anchor="middle">WiresharkSink</text></g><g id="edge1" class="edge"><title>2518161510704-&gt;2518161510896</title><path fill="none" stroke="#00f" d="M53,-71.7C53,-63.98 53,-54.71 53,-46.11"/><polygon fill="#00f" stroke="#00f" points="53 -36.1 57.5 -46.1 53 -41.1 53 -46.1 53 -46.1 53 -46.1 53 -41.1 48.5 -46.1 53 -36.1 53 -36.1"/></g><g id="node2" class="node"><title>2518161510992</title><polygon fill="none" stroke="#000" points="94.5 -180 11.5 -180 11.5 -144 94.5 -144 94.5 -180"/><text x="53" y="-158.3" font-family="Times New Roman,serif" font-size="14" text-anchor="middle">SniffSource</text></g><g id="edge2" class="edge"><title>2518161510992-&gt;2518161510704</title><path fill="none" stroke="#00f" d="M53,-143.7C53,-135.98 53,-126.71 53,-118.11"/><polygon fill="#00f" stroke="#00f" points="53 -108.1 57.5 -118.1 53 -113.1 53 -118.1 53 -118.1 53 -118.1 53 -113.1 48.5 -118.1 53 -108.1 53 -108.1"/></g></g></svg>